<?xml version="1.0" standalone="no"?>
<!DOCTYPE svg PUBLIC "-//W3C//DTD SVG 1.1//EN" "http://www.w3.org/Graphics/SVG/1.1/DTD/svg11.dtd" >
<svg xmlns="http://www.w3.org/2000/svg">
<metadata>Generated by IcoMoon</metadata>
<defs>
<font id="icomoon" horiz-adv-x="1024">
<font-face units-per-em="1024" ascent="960" descent="-64" />
<missing-glyph horiz-adv-x="1024" />
<glyph unicode="&#x20;" horiz-adv-x="512" d="" />
<glyph unicode="&#xe600;" glyph-name="save-money" horiz-adv-x="862" d="M844.884 491.934l16.898-27.036c-81.109-43.934-65.901-70.97-57.452-119.974 18.587-108.145-21.967-229.809-104.766-299.089v-109.835h-148.7v67.591c-35.485-10.156-72.66-15.208-111.525-15.208-30.416 0-59.142 3.38-86.178 8.449v-60.832h-148.7v111.525c-59.142 18.604-101.386 81.109-125.043 108.145-23.657 28.726-49.003 37.175-81.109 32.089l1.69 157.165c35.485-1.707 70.97 1.69 87.868 42.244 16.898 42.244 60.832 118.284 128.422 162.218 6.759 33.795-37.175 89.558-55.762 135.182 99.696 11.828 180.805-18.587 221.36-91.248 98.007 21.984 238.257 1.707 317.677-67.591 35.485-32.106 52.383-77.729 145.32-33.795v0zM155.459 385.479c11.828 0 21.967-13.518 21.967-30.416s-10.139-30.416-21.967-30.416c-11.828 0-21.967 13.518-21.967 30.416-1.69 16.898 8.449 30.416 21.967 30.416v0zM397.096 559.525c64.211 8.449 128.422 3.38 192.634-8.449v-40.554c-64.211 11.828-128.422 15.208-192.634 8.449v40.554zM468.066 860.304c3.38 0 6.759 3.38 6.759 6.759s-3.38 6.759-6.759 6.759h-89.558c-3.38 0-6.759-3.38-6.759-6.759s3.38-6.759 6.759-6.759h89.558zM434.271 823.129c0-4.666-3.783-8.449-8.449-8.449s-8.449 3.783-8.449 8.449c0 4.666 3.783 8.449 8.449 8.449s8.449-3.783 8.449-8.449zM466.376 846.785c0 3.38-3.363 6.759-6.742 6.759h-38.865c-3.38 0-6.759-3.38-6.759-6.759-0.017-3.38 3.363-6.759 6.742-6.759h38.865c5.069 0 6.759 1.69 6.759 6.759zM457.927 823.129c0-4.666-3.783-8.449-8.449-8.449s-8.449 3.783-8.449 8.449c0 4.666 3.783 8.449 8.449 8.449s8.449-3.783 8.449-8.449zM441.030 960c-62.521 0-111.525-50.693-111.525-111.525 0-60.849 50.693-111.542 111.525-111.542 60.849 0 111.542 50.693 111.542 111.542-0.017 60.832-50.71 111.525-111.542 111.525zM441.030 772.436c-40.554 0-74.35 33.795-74.35 74.35s33.795 74.35 74.333 74.35c40.554 0 74.35-33.795 74.35-74.35 0.017-40.554-33.778-74.35-74.333-74.35zM441.030 912.686c-23.64 0-43.934-11.828-55.762-30.416h16.898c10.139 11.828 23.657 18.587 38.865 18.587 28.726 0 52.383-23.657 52.383-52.383s-23.657-52.383-52.383-52.383c-28.726 0-52.383 23.657-52.383 52.383 0 1.69 0 3.38 0 5.069h-13.518c0-1.69 0-3.38 0-5.069 0-35.502 28.726-65.901 65.884-65.901 35.502 0 65.901 28.726 65.901 65.901s-30.399 64.211-65.884 64.211zM674.218 787.644c-45.624 25.347-103.076 6.759-128.422-38.865s-6.742-103.076 38.865-128.422c45.624-25.347 103.093-6.759 128.439 38.865s8.432 103.076-38.882 128.422zM686.046 672.739c-16.898-30.416-55.762-42.244-86.178-25.347s-42.244 55.762-25.347 86.178c16.898 30.416 55.762 42.244 86.178 25.347s42.244-54.073 25.347-86.178zM589.729 736.95l65.884-35.485c3.38-1.69 6.759 0 6.759 1.69 1.69 3.38 0 6.759-1.707 6.759l-65.867 35.485c-3.38 1.707-6.759 0-6.759-1.69-3.38-1.69-1.69-5.069 1.69-6.759zM635.353 681.188c0-4.666-3.783-8.449-8.449-8.449s-8.449 3.783-8.449 8.449c0 4.666 3.783 8.449 8.449 8.449s8.449-3.783 8.449-8.449zM648.871 691.327c1.69 3.363 0 6.742-1.707 6.742l-28.726 15.208c-3.363 1.707-6.742 0.017-6.742-1.673-1.69-3.38 0-6.759 1.69-6.759l28.726-15.208c1.69-1.69 5.069 0 6.759 1.69zM618.455 689.637c0-4.666-3.783-8.449-8.449-8.449s-8.449 3.783-8.449 8.449c0 4.666 3.783 8.449 8.449 8.449s8.449-3.783 8.449-8.449zM655.63 752.158c-16.898 10.139-38.865 8.449-54.073-1.69l11.828-6.759c11.828 5.069 25.347 3.38 37.175-1.69 21.967-11.828 30.416-38.882 18.587-60.849-11.811-21.967-38.865-30.416-60.832-18.587s-30.416 38.865-18.587 60.832c0 1.707 1.69 3.38 1.69 3.38l-10.139 5.069c0-1.69-1.707-3.38-1.707-3.38-15.191-27.019-5.052-60.815 21.984-74.333 27.036-15.208 60.832-5.069 74.35 23.657 16.898 27.036 6.759 60.832-20.277 74.35z" />
<glyph unicode="&#xe601;" glyph-name="search" horiz-adv-x="1053" d="M671.234 960c-215.579 0-387.062-171.483-387.062-382.163 0-210.728 171.483-387.062 387.062-387.062 210.679 0 387.013 171.483 387.013 387.062 0.049 215.579-176.334 382.163-387.013 382.163zM671.234 278.967c-161.684 0-298.871 132.287-298.871 298.92 0 166.535 132.287 298.871 298.871 298.871 161.684 0 298.871-132.287 298.871-298.871 0-166.633-137.187-298.92-298.871-298.92zM328.268 293.665c-24.498 24.498-58.794 24.498-83.292 0l-210.679-210.679c-24.498-24.498-24.498-58.794 0-83.292l44.096-44.096c19.598-24.498 58.794-24.498 83.292 0l210.679 210.679c19.598 24.498 19.598 58.794-4.9 83.292l-39.196 44.096z" />
<glyph unicode="&#xe602;" glyph-name="cart" horiz-adv-x="1122" d="M955.407 29.091c0-51.413-41.678-93.091-93.091-93.091s-93.091 41.678-93.091 93.091c0 51.413 41.678 93.091 93.091 93.091s93.091-41.678 93.091-93.091zM641.837 29.091c0-51.413-41.678-93.091-93.091-93.091s-93.091 41.678-93.091 93.091c0 51.413 41.678 93.091 93.091 93.091s93.091-41.678 93.091-93.091zM1068.096 739.522h-720.23l-63.694 181.282c-9.799 24.498-29.397 39.196-53.895 39.196h-176.383c-73.493 0-73.493-112.689 0-112.689h132.287c68.593-200.88 127.388-387.062 191.081-592.842 4.9-24.498 29.397-39.196 53.895-39.196h538.947c24.498 0 48.995 19.598 53.944 44.096l93.042 411.56c14.699 34.297-14.699 68.593-48.995 68.593zM563.445 381.856c0-24.498-19.549-48.995-48.995-48.995-24.498 0-48.995 19.549-48.995 48.995v191.081c0 24.498 19.598 48.995 48.995 48.995 24.498 0 48.995-19.549 48.995-48.995v-191.081zM749.627 381.856c0-24.498-19.549-48.995-48.995-48.995-24.498 0-48.995 19.549-48.995 48.995v191.081c0 24.498 19.598 48.995 48.995 48.995 24.498 0 48.995-19.549 48.995-48.995v-191.081zM935.809 381.856c0-24.498-19.598-48.995-48.995-48.995-24.498 0-48.995 19.549-48.995 48.995v191.081c0 24.498 19.549 48.995 48.995 48.995 24.498 0 48.995-19.549 48.995-48.995v-191.081z" />
<glyph unicode="&#xe603;" horiz-adv-x="1891" d="M3.288 960.47h1620.55v-881.673h-1620.55v881.673z" />
<glyph unicode="&#xe604;" horiz-adv-x="1891" d="M817.791 773.989c-135.75 0-245.901-107.802-245.901-240.969s109.916-240.969 245.901-240.969c135.75 0 245.666 107.802 245.666 240.969s-109.916 240.969-245.666 240.969zM594.437 596.668c0 11.743 9.629 21.138 21.607 21.138h292.639c11.978 0 21.372-9.394 21.372-21.138s-9.629-21.138-21.372-21.138h-292.639c-11.978 0-21.607 9.629-21.607 21.138zM753.673 508.125c-11.978 0-21.607 9.394-21.607 21.138s9.629 21.138 21.607 21.138h129.174c11.978 0 21.372-9.394 21.372-21.138s-9.629-21.138-21.372-21.138h-129.174zM878.62 453.167c0-16.206-13.387-29.593-30.062-29.593s-30.062 13.152-30.062 29.593c0 16.44 13.387 29.593 30.062 29.593 16.44 0 30.062-13.152 30.062-29.593zM801.116 453.167c0-16.206-13.387-29.593-30.062-29.593s-30.062 13.152-30.062 29.593c0 16.44 13.622 29.593 30.062 29.593s30.062-13.152 30.062-29.593zM818.261 322.349c-118.84 0-215.134 94.415-215.134 210.906 0 5.872 0.47 11.743 0.939 17.38h42.98c-0.47-5.637-0.939-11.508-0.939-17.38 0-93.24 77.035-168.866 172.154-168.866s172.154 75.626 172.154 168.866c0 93.24-77.035 168.866-172.154 168.866-51.905 0-98.407-22.782-130.114-58.481h-53.079c37.813 60.36 105.688 100.756 183.193 100.756 118.84 0 215.134-94.415 215.134-210.906s-96.294-211.141-215.134-211.141z" />
<glyph unicode="&#xe605;" horiz-adv-x="1891" d="M0.939 953.189v-866.877h1625.483v866.877h-1625.483zM1528.954 280.073c-50.965 0-92.301-39.927-93.71-89.483h-1235.611c-1.409 49.556-42.745 89.483-93.71 89.483-3.758 0-7.516-0.705-11.273-1.174v484.051c3.758-0.47 7.281-1.174 11.273-1.174 51.905 0 93.945 41.101 93.945 92.066 0 2.583-0.47 4.932-0.705 7.281h1236.785c-0.235-2.349-0.705-4.697-0.705-7.281 0-50.73 42.040-92.066 93.945-92.066 1.174 0 2.349 0.235 3.523 0.235v-482.642c-1.409 0.235-2.583 0.705-3.758 0.705z" />
<glyph unicode="&#xe606;" horiz-adv-x="1891" d="M817.791 778.451c-135.281 0-244.961-109.681-244.961-244.961s109.446-245.196 244.961-245.196 244.961 109.681 244.961 244.961-109.681 245.196-244.961 245.196zM595.141 598.077c0 11.743 9.629 21.372 21.372 21.372h291.934c11.743 0 21.372-9.629 21.372-21.372s-9.629-21.372-21.372-21.372h-291.934c-11.743 0-21.372 9.394-21.372 21.372zM753.908 507.89c-11.743 0-21.372 9.629-21.372 21.372s9.629 21.372 21.372 21.372h128.705c11.978 0 21.372-9.629 21.372-21.372s-9.629-21.372-21.372-21.372h-128.705zM878.385 452.228c0-16.675-13.387-30.062-30.062-30.062s-30.062 13.387-30.062 30.062 13.387 30.062 30.062 30.062c16.675 0 30.062-13.622 30.062-30.062zM801.116 452.228c0-16.675-13.387-30.062-30.062-30.062s-30.062 13.387-30.062 30.062 13.387 30.062 30.062 30.062 30.062-13.622 30.062-30.062zM818.261 319.061c-118.371 0-214.664 96.059-214.664 214.664 0 6.106 0.47 11.978 0.939 17.85h42.98c-0.705-5.872-0.939-11.743-0.939-17.85 0-94.884 76.8-171.684 171.684-171.684s171.684 76.8 171.684 171.684c0 94.884-76.8 171.684-171.684 171.684-51.905 0-98.172-23.017-129.644-59.42h-52.844c37.813 61.299 105.453 102.4 182.723 102.4 118.606 0 214.664-96.059 214.664-214.664-0.235-118.606-96.294-214.664-214.899-214.664z" />
<glyph unicode="&#xe607;" horiz-adv-x="1891" d="M3.288 960.47v-881.673h1620.55v881.673h-1620.55zM1526.84 275.846c-50.965 0-92.066-40.631-93.475-91.127h-1231.853c-1.409 50.495-42.51 91.127-93.24 91.127-3.758 0-7.516-0.705-11.273-1.174v492.506c3.758-0.47 7.281-1.174 11.273-1.174 51.67 0 93.475 41.806 93.475 93.475 0 2.583-0.47 4.932-0.705 7.281h1233.028c-0.235-2.583-0.705-4.932-0.705-7.281 0-51.67 41.806-93.475 93.71-93.475 1.174 0 2.349 0.235 3.523 0.47v-490.862c-1.409 0-2.583 0.235-3.758 0.235z" />
<glyph unicode="&#xe608;" horiz-adv-x="1891" d="M1593.306 110.972h-1559.017v817.556h1559.017v-817.556zM63.648 140.565h1499.831v758.371h-1499.831v-758.371z" />
<glyph unicode="&#xe609;" horiz-adv-x="1891" d="M1617.497 483.464c-151.017 0-273.38-122.363-273.38-273.38s122.363-273.38 273.38-273.38c151.017 0 273.38 122.363 273.38 273.38s-122.598 273.38-273.38 273.38z" />
<glyph unicode="&#xe60a;" horiz-adv-x="1891" d="M1683.963 242.026c8.69 0 15.736 7.046 15.736 15.736s-7.046 15.736-15.736 15.736h-214.664c-8.69 0-15.736-7.046-15.736-15.736s7.046-15.736 15.736-15.736h214.664z" />
<glyph unicode="&#xe60b;" horiz-adv-x="1891" d="M1560.895 150.429c0-12.213 9.864-22.077 22.077-22.077s22.077 9.864 22.077 22.077c0 12.213-9.864 22.077-22.077 22.077-12.213 0.235-22.077-9.864-22.077-22.077z" />
<glyph unicode="&#xe60c;" horiz-adv-x="1891" d="M1680.91 207.266c0 8.69-7.046 15.736-15.736 15.736h-94.65c-8.69 0-15.736-7.046-15.736-15.736s7.046-15.736 15.736-15.736h94.65c8.69 0 15.736 7.046 15.736 15.736z" />
<glyph unicode="&#xe60d;" horiz-adv-x="1891" d="M1617.732 150.429c0-12.213 9.864-22.077 22.077-22.077s22.077 9.864 22.077 22.077c0 12.213-9.864 22.077-22.077 22.077-12.213 0.235-22.077-9.864-22.077-22.077z" />
<glyph unicode="&#xe60e;" horiz-adv-x="1891" d="M1617.262 480.176c-149.138 0-269.857-120.954-269.857-269.857 0-149.138 120.954-269.857 269.857-269.857 149.138 0 269.857 120.954 269.857 269.857 0.235 148.903-120.719 269.857-269.857 269.857zM1617.262 29.945c-99.582 0-180.139 80.793-180.139 180.139 0 99.582 80.558 180.139 180.139 180.139s180.139-80.558 180.139-180.139c0.235-99.347-80.558-180.139-180.139-180.139z" />
<glyph unicode="&#xe60f;" horiz-adv-x="1891" d="M1617.732 368.147c-56.837 0-106.393-30.062-134.341-75.156h38.987c23.017 26.774 57.306 43.684 95.354 43.684 69.754 0 126.121-56.367 126.121-126.121s-56.602-126.121-126.121-126.121c-69.754 0-126.121 56.602-126.121 126.121 0 4.462 0.235 8.69 0.705 13.152h-31.472c-0.47-4.228-0.705-8.69-0.705-13.152 0-87.134 70.694-157.828 157.828-157.828s157.828 70.694 157.828 157.828c-0.235 87.134-70.928 157.593-158.062 157.593z" />
<glyph unicode="&#xe610;" horiz-adv-x="1891" d="M1684.903 242.495c8.925 0 15.971 7.046 15.971 15.971s-7.046 15.971-15.971 15.971h-217.248c-8.69 0-15.971-7.046-15.971-15.971s7.046-15.971 15.971-15.971h217.248z" />
<glyph unicode="&#xe611;" horiz-adv-x="1891" d="M1560.191 149.725c0-12.448 10.099-22.312 22.312-22.312 12.448 0 22.312 10.099 22.312 22.312 0 12.448-10.099 22.312-22.312 22.312s-22.312-9.864-22.312-22.312z" />
<glyph unicode="&#xe612;" horiz-adv-x="1891" d="M1681.615 207.266c0 8.925-7.046 15.971-15.971 15.971h-95.824c-8.69 0-15.971-7.046-15.971-15.971 0-8.69 7.046-15.971 15.971-15.971h95.824c8.925 0 15.971 7.281 15.971 15.971z" />
<glyph unicode="&#xe613;" horiz-adv-x="1891" d="M1617.732 149.725c0-12.448 10.099-22.312 22.312-22.312 12.448 0 22.312 10.099 22.312 22.312 0 12.448-10.099 22.312-22.312 22.312s-22.312-9.864-22.312-22.312z" />
<glyph unicode="&#xe614;" horiz-adv-x="1891" d="M1617.497 483.464c-151.017 0-273.38-122.363-273.38-273.38s122.363-273.38 273.38-273.38c151.017 0 273.38 122.363 273.38 273.38s-122.598 273.38-273.38 273.38zM1617.497 27.831c-100.756 0-182.488 81.732-182.488 182.488s81.732 182.488 182.488 182.488c100.756 0 182.488-81.732 182.488-182.488 0-100.991-81.732-182.488-182.488-182.488z" />
<glyph unicode="&#xe615;" horiz-adv-x="1891" d="M1617.732 370.261c-57.541 0-107.802-30.532-135.985-76.33h39.457c23.486 27.009 58.011 44.389 96.528 44.389 70.459 0 127.765-57.306 127.765-127.765 0-70.694-57.306-127.765-127.765-127.765-70.694 0-127.765 57.306-127.765 127.765 0 4.462 0.235 8.925 0.705 13.152h-31.941c-0.47-4.462-0.705-8.69-0.705-13.152 0-88.308 71.398-159.706 159.706-159.706 88.073 0 159.706 71.633 159.706 159.706 0.235 88.073-71.398 159.706-159.706 159.706z" />
<glyph unicode="&#xe616;" glyph-name="basic-logo" d="M513.781 954.88c-283.158 0-512.89-229.51-512.89-512.89s229.732-512.89 512.89-512.89c283.158 0 512.89 229.732 512.89 512.89 0 283.381-229.51 512.89-512.89 512.89zM47.861 577.558c0 24.71 20.035 44.967 44.967 44.967h610.838c24.712 0 44.967-20.035 44.967-44.967s-20.035-44.967-44.967-44.967h-610.838c-24.71 0.223-44.967 20.257-44.967 44.967zM380.216 389.009c-24.71 0-44.967 20.035-44.967 44.967 0 24.71 20.035 44.967 44.967 44.967h269.579c24.71 0 44.965-20.035 44.965-44.967 0-24.712-20.035-44.967-44.965-44.967h-269.579zM640.668 272.139c0-34.727-28.049-62.776-62.776-62.776s-62.773 28.271-62.773 62.776c0 34.727 28.049 62.998 62.773 62.998 34.727 0 62.776-28.049 62.776-62.998zM479.054 272.139c0-34.727-28.049-62.776-62.776-62.776s-62.776 28.271-62.776 62.776c0 34.727 28.049 62.998 62.776 62.998s62.776-28.049 62.776-62.998zM514.894-6.122c-247.986 0-449.002 201.016-449.002 449.002 0 12.466 0.89 24.932 1.781 37.176h89.934c-1.336-12.243-2.003-24.71-2.003-37.176 0-198.347 160.946-359.29 359.29-359.29 198.347 0 359.29 160.723 359.29 359.29 0 198.344-160.723 359.29-359.29 359.29-108.633 0-205.69-48.306-271.583-124.438h-110.637c79.026 128.445 220.383 214.372 382.219 214.372 247.986 0 449.002-201.016 449.002-449.002 0.223-248.209-200.793-449.224-449.002-449.224z" />
<glyph unicode="&#xe617;" glyph-name="shopping-list" horiz-adv-x="809" d="M179.2 760.32h455.68c30.72 0 56.32 25.6 56.32 56.32s-25.6 56.32-56.32 56.32h-86.989c0 10.24 0 15.36 0 30.72 0 30.72-25.6 56.32-56.371 56.32h-168.96c-30.72 0-56.32-25.6-56.32-56.32 0-10.24 0-20.48 0-30.72h-87.040c-30.72 0-56.32-25.6-56.32-56.32s25.6-56.32 56.32-56.32zM348.16 872.96l30.72 30.72h56.32l30.72-30.72v-56.32l-30.72-25.6h-56.32l-30.72 25.6v56.32zM747.52 816.64c0-61.44-51.2-112.64-112.64-112.64h-455.68c-61.44 0-112.64 51.2-112.64 112.64-30.72 0-56.32-25.6-56.32-56.32v-768c0-30.72 25.6-56.32 56.32-56.32h686.131c30.72 0 56.32 25.6 56.32 56.32v768c-0.051 30.72-25.651 56.32-61.491 56.32zM92.16 504.32h430.131v-56.32h-430.131v56.32zM92.16 273.92h430.131v-56.32h-430.131v56.32zM721.92 104.96h-629.76v56.32h629.76v-56.32zM721.92 330.24h-629.76v56.32h629.76v-56.32zM721.92 560.64h-629.76v56.32h629.76v-56.32z" />
<glyph unicode="&#xe618;" glyph-name="card" horiz-adv-x="977" d="M513.684 518.4c-59.284 0-118.568 0-177.853 0-85.895 0-171.789 0.337-257.347 0-9.768 0-16.842 3.032-23.242 10.105-12.126 13.137-25.263 25.6-37.726 38.4-23.916 24.589-23.916 43.789 0.337 67.705 59.958 59.284 120.589 118.568 180.884 177.853 15.832 15.495 15.495 15.495 31.326-0.674 79.495-80.842 158.653-161.684 238.484-242.189 15.832-15.832 32.674-30.316 49.179-45.474-1.347-2.021-2.695-4.042-4.042-5.726zM812.463 518.4c-40.421 0-80.505 0-120.589 0-6.737 0-10.105 4.716-13.814 8.421-122.944 125.305-245.891 250.611-369.176 375.916-6.4 6.737-7.747 10.442-0.337 17.179 9.768 8.421 18.189 18.189 27.621 27.284 20.211 19.2 40.758 18.863 60.295-1.011 46.821-47.495 93.642-95.326 140.126-143.158 89.603-91.284 179.2-182.568 268.8-273.853 3.032-2.695 7.074-4.379 7.074-10.779zM977.853 419.368c0.34 33.011-12.8 53.558-53.221 53.221-281.937-1.011-563.537-0.674-845.474-0.674-30.653 0-45.474-14.821-45.474-45.137 0-147.537 0-295.411 0-442.947 0-29.642 11.116-42.445 40.421-48.168 8.421 0.337 16.842 1.011 25.263 1.011 276.884 0 553.768 0 830.653 0 27.621 0 38.067 7.411 47.498 33.011-0.003 149.895-0.677 299.789 0.333 449.684zM222.316 356.042c0.337-8.761-3.368-11.789-11.789-11.789-34.021 0.337-68.379 0-102.4 0-7.747 0-11.453 3.028-10.779 11.116 0 0.674 0 1.011 0 1.684 2.358 18.863-9.768 45.137 5.389 55.242 13.474 9.091 37.726 2.021 57.263 2.021 0 0.337 0 0.337 0 0.674 16.842 0 33.684-0.34 50.189 0 8.421 0.337 12.126-2.695 11.789-11.453 0-16.168 0-32 0.337-47.495zM838.737 40.758c-29.642-15.828-59.621-14.144-87.579 5.053-8.758 6.067-13.474 6.4-22.568 0-34.358-24.249-82.863-18.526-110.147 11.789-29.302 32.674-29.976 81.182-1.344 113.516 28.291 32 75.789 38.4 111.158 13.814 8.758-6.067 13.811-5.726 22.905 0 27.958 18.526 57.6 19.87 87.579 4.712 28.632-14.818 44.463-42.442 44.126-86.232-0.34-21.895-15.161-47.158-44.13-62.653z" />
<glyph unicode="&#xe619;" glyph-name="add-to-shopping-list" horiz-adv-x="826" d="M436.026 629.677v231.226h-383.174c-33.032 0-52.852-19.819-52.852-46.245v-825.806c0-26.36 19.819-52.852 52.852-52.852h614.4c26.426 0 52.918 19.819 52.918 52.852v594.581h-231.292c-26.426 0-52.852 19.819-52.852 46.245zM79.277 517.368h330.323v-52.852h-330.323v52.852zM640.826 41.703h-561.548v52.852h568.155v-52.852h-6.606zM640.826 180.439h-561.548v52.852h568.155v-52.852h-6.606zM640.826 319.174h-561.548v52.852h568.155v-52.852h-6.606zM812.594 847.69h-92.49v105.703c0 6.606-6.606 6.606-13.213 6.606h-85.884c-6.606 0-13.213 0-13.213-6.606v-105.703h-92.49c-6.606 0-6.606-6.606-6.606-13.213v-72.671c0-6.606 0-13.213 6.606-13.213h92.49v-105.703c0-6.606 6.606-6.606 13.213-6.606h92.49c6.606 0 13.213 6.606 13.213 6.606v112.31h92.49c6.606 0 6.606 6.606 6.606 13.213v72.671c0 6.606-6.606 6.606-13.213 6.606z" />
<glyph unicode="&#xe61a;" glyph-name="prepared-purchases" horiz-adv-x="674" d="M343.075 865.959c-10.449 62.694-71.401 104.49-134.095 94.041-60.952-12.19-104.49-71.401-92.299-134.095l57.469-329.143 10.449-8.707 45.279 41.796 45.279-41.796 45.279 41.796 45.279-41.796 34.83 31.347-57.469 346.558zM184.599 780.626c-6.966 0-12.19 5.224-12.19 12.19s5.224 12.19 12.19 12.19c47.020 0 121.905-26.122 151.51-64.435 3.483-5.224 3.483-13.932-1.741-17.415-1.741-1.741-5.224-3.483-6.966-3.483-3.483 0-6.966 1.741-10.449 5.224-22.639 29.605-87.075 55.728-132.354 55.728zM348.299 601.252c-1.759-1.741-5.224-3.483-6.966-3.483-3.483 0-6.966 1.741-10.449 5.224-22.639 27.864-87.075 53.986-132.354 53.986-6.966 0-12.19 5.224-12.19 12.19s5.224 12.19 12.19 12.19c47.020 0 121.905-26.122 151.51-64.435 3.466-3.483 3.466-10.449-1.741-15.673zM599.075 505.469v-567.745h-552.054v567.745l45.279-41.796 47.020 41.796 45.279-41.796 45.279 41.796 45.279-41.796 45.279 41.796 45.279-41.796 45.279 41.796 45.279-41.796 45.279 41.796 45.296-41.796 52.227 41.796zM154.993 514.177l-15.673 13.932-45.279-41.796-33.088 29.605-1.741 1.741-60.952 156.735 118.422 45.279 38.313-205.497zM640.853 716.19c-5.207-1.741-10.449-1.741-17.415-1.741 10.466-8.707 15.673-20.898 12.208-31.347-5.224-10.449-22.639-13.932-40.054-8.707 0-13.932-3.466-24.381-13.932-27.864-1.759 0-6.949 0-10.466 0l-50.486 13.932c-6.949-10.449-12.19-20.898-17.415-31.347l106.231-27.864-20.915-83.592-34.83-31.347-45.279 41.796-45.279-41.796-40.072 36.571-24.346 134.095 76.608-20.898c1.759 12.19 1.759 22.639 0 34.83l-50.486 13.932c-3.483 1.741-6.949 3.483-10.466 5.224-6.949 6.966-5.207 19.156 1.759 31.347-17.415 3.483-31.347 15.673-29.605 27.864 1.741 10.449 12.19 17.415 26.122 20.898-5.224 3.483-8.707 5.224-13.932 10.449-17.415 17.415-22.639 40.054-10.466 50.503 10.466 10.449 34.83 6.966 50.503-10.449 27.864-34.83 41.796-80.109 47.020-128.871 1.759-12.19 6.949-13.932 6.949-1.741 1.759 52.245-5.207 88.816-19.156 123.646 0 0 0 0 0 1.741-10.449 22.639-6.966 47.020 6.966 53.986 10.449 5.224 24.381-1.741 34.83-13.932 0 6.966 1.741 12.19 3.466 19.156 7.018 27.864 27.916 45.279 45.331 41.796 17.415-5.224 26.122-31.347 19.174-59.211-1.759-6.966-3.518-12.19-6.983-19.156 15.673 5.224 31.347 3.483 38.296-5.224 8.707-13.932 0-36.571-20.881-50.503v0c-29.605-22.639-53.986-50.503-78.367-97.524-6.966-12.19 0-12.19 6.966-3.483 29.588 40.054 62.694 73.143 104.49 88.816 22.622 8.707 45.279 0 48.744-15.673 3.5-13.932-12.173-31.347-34.83-38.313zM330.884 374.857c-88.816 0-161.959-73.143-161.959-161.959s73.143-161.977 161.959-161.977 161.942 73.16 161.942 161.977-73.125 161.959-161.942 161.959zM182.857 254.694c0 8.707 6.966 13.915 13.932 13.915h193.306c8.707 0 13.932-6.949 13.932-13.915 0-8.707-6.966-13.949-13.932-13.949h-193.306c-6.966 0.017-13.932 6.983-13.932 13.949zM287.347 195.483c-8.707 0-13.932 6.966-13.932 13.932 0 8.707 6.966 13.932 13.932 13.932h85.333c8.707 0 13.932-6.966 13.932-13.932s-6.966-13.932-13.932-13.932h-85.333zM370.921 158.912c0-10.466-8.707-19.174-19.156-19.174s-19.139 8.725-19.139 19.174c0 10.449 8.707 19.156 19.156 19.156s19.139-8.707 19.139-19.156zM318.694 158.912c0-10.466-8.707-19.174-19.156-19.174s-19.156 8.707-19.156 19.174c0 10.449 8.707 19.156 19.156 19.156s19.156-8.707 19.156-19.156zM330.884 70.095c-78.367 0-142.803 64.435-142.803 142.803 0 3.466 0 8.707 0 12.173h27.864c0-3.466 0-6.949 0-12.173 0-62.694 50.503-113.197 113.197-113.197 62.711 0 113.197 50.503 113.197 113.197s-50.486 113.197-113.197 113.197c-34.83 0-64.435-15.673-85.333-40.072h-34.83c24.381 40.072 69.66 67.918 120.163 67.918 78.367 0 142.803-64.418 142.803-142.785 0-76.626-62.694-141.061-141.061-141.061z" />
<glyph unicode="&#xe61b;" glyph-name="shopping-help" horiz-adv-x="848" d="M760.502 960h-672.669c-49.272 0-87.833-38.561-87.833-87.833v-848.356c0-49.251 38.561-87.811 87.833-87.811h672.669c49.272 0 87.833 38.582 87.833 87.833v848.335c0 49.272-38.561 87.833-87.833 87.833zM792.636 25.975c0-17.138-14.996-32.134-32.134-32.134h-672.669c-17.138 0-32.134 14.996-32.134 32.134v846.192c0 19.28 12.875 34.276 32.134 34.276h672.669c17.138 0 32.134-14.996 32.134-32.134v-848.335zM201.372 580.82h51.414c10.711 0 19.28-8.569 19.28-19.28v-51.414c0-10.711-8.569-19.28-19.28-19.28h-51.414c-10.711 0-19.28 8.569-19.28 19.28v51.414c0 10.711 8.569 19.28 19.28 19.28v0zM357.757 555.113h306.343c10.711 0 19.259-8.569 19.259-19.28v-2.142c0-10.711-8.548-19.28-19.259-19.28h-306.343c-10.711 0-19.28 8.569-19.28 19.28v2.142c0 12.854 8.569 19.28 19.28 19.28v0zM201.372 756.485h51.414c10.711 0 19.28-8.569 19.28-19.28v-51.414c0-10.711-8.569-19.28-19.28-19.28h-51.414c-10.711 0-19.259 8.569-19.259 19.28v51.414c-0.021 12.854 8.548 19.28 19.259 19.28v0zM357.757 732.921h306.343c10.711 0 19.259-8.569 19.259-19.28v-2.142c0-10.711-8.548-19.28-19.259-19.28h-306.343c-10.711 0-19.28 8.569-19.28 19.28v2.142c0 10.711 8.569 19.28 19.28 19.28v0zM201.372 403.013h51.414c10.711 0 19.28-8.569 19.28-19.28v-51.414c0-10.711-8.569-19.28-19.28-19.28h-51.414c-10.711 0-19.259 8.569-19.259 19.28v51.414c-0.021 10.711 8.548 19.28 19.259 19.28v0zM357.757 379.448h306.343c10.711 0 19.28-8.569 19.28-19.28v-2.142c0-10.711-8.569-19.28-19.28-19.28h-306.343c-10.711 0-19.28 8.548-19.28 19.259v2.164c0 10.711 8.569 19.28 19.28 19.28v0zM201.372 227.326h51.414c10.711 0 19.28-8.548 19.28-19.259v-51.414c0-10.711-8.569-19.28-19.28-19.28h-51.414c-10.711 0-19.28 8.569-19.28 19.28v51.414c0 10.711 8.569 19.259 19.28 19.259v0zM357.757 201.64h306.343c10.711 0 19.259-8.569 19.259-19.28v-2.142c0-10.711-8.548-19.28-19.259-19.28h-306.343c-10.711 0-19.28 8.569-19.28 19.28v2.142c0 10.711 8.569 19.28 19.28 19.28v0z" />
<glyph unicode="&#xe61c;" horiz-adv-x="830" d="M792.033 901.486h-66.873v6.269c0 18.808-16.718 35.527-35.506 35.527h-96.152v-108.669c0-8.359-4.18-10.449-10.449-4.18l-39.706 41.796c-6.269 4.18-14.649 4.18-20.898 0l-43.907-41.796c-6.269-4.18-10.449-2.090-10.449 6.269v106.58h-424.208c-29.257 4.18-43.886-22.988-43.886-41.796v-869.355c0 0 0-94.041 102.4-94.041h681.273c0 0 45.955 0 45.955 41.796v881.894c0.021 41.796-37.595 39.706-37.595 39.706zM365.714 477.257c4.18 4.18 10.449 6.269 16.718 6.269h2.090c6.269 0 14.629 2.090 18.808 8.359s4.18 14.629 0 20.898c0 2.090-2.090 2.090-2.090 2.090-4.18 4.18-6.269 8.359-8.359 14.629-2.090 2.090-2.090 6.269-4.18 8.359v0c-10.449 29.257-6.269 62.694 12.539 89.861v0l8.359 10.449 75.233 104.49c6.29 8.359 18.808 10.449 29.257 4.18 8.359-6.269 12.539-18.808 4.159-27.167v0l-35.506-48.065-2.090 2.090-33.437-48.065c0 0 0 0 0-2.090 0 0 0 0 0-2.090-6.269-8.359-2.111-20.898 6.269-27.167s20.898-4.18 27.188 4.18c0 0 0 0 0 2.090 0 0 0 0 0 2.090l45.955 62.694v2.090l25.078 33.437c6.269 8.359 18.787 10.449 29.236 4.18 8.359-6.269 10.449-18.808 4.2-27.167v0l-25.098-33.437v-2.090l-45.955-62.694c0 0 0 0 0-2.090 0 0 0 0 0-2.090-6.29-8.359-2.090-20.898 6.269-27.167 8.338-6.269 20.898-4.18 27.167 4.18 0 0 0 0 0 2.090 0 0 0 0 0 2.090l33.437 48.065 2.111 2.090 35.527 48.065c6.269 8.359 18.808 10.449 29.257 4.18 8.338-6.269 10.449-18.808 4.159-27.167v0l-75.233-104.49-8.359-10.449c-16.718-25.078-43.886-39.706-71.053-41.796 0 0 0 0-2.090 0-12.539-2.090-25.057 0-35.506 2.090-2.111 0-2.111 0-4.2 0-8.338 2.090-16.697-2.090-20.898-8.359-4.159-6.269-4.159-12.539-2.090-18.808 0 0 0 0 0-2.090 2.090-6.269 2.090-14.629-2.090-18.808l-177.633-248.686c-12.539-18.808-37.616-23.009-56.424-10.449-16.718 12.539-22.988 35.527-12.539 54.335l4.18 6.269 175.543 244.506 2.090 2.090zM499.461 190.955c-18.808-12.539-43.907-8.359-56.424 10.449v0l-73.143 104.49 48.065 68.963 91.951-127.478c12.539-18.808 8.338-43.886-10.449-56.424zM94.041 690.416v0c2.090 14.629 10.449 27.167 22.988 35.527s27.167 12.539 41.796 10.449v0c50.155-8.359 98.22-33.437 131.657-77.322 2.090-2.090 2.090-4.18 4.18-6.269 0 0 0 0 0-2.090 0 0 0 0 0-2.090 20.898-29.257 22.988-66.873 8.359-98.22v0-2.090c0 0 0 0 0-2.090-2.090-4.18-4.18-8.359-8.359-12.539l-2.090-2.090c-4.18-6.269-4.18-14.629 0-20.898s10.449-8.359 18.808-8.359h2.090c6.269 0 14.629-2.090 18.808-8.359v0l8.359-12.539-50.155-71.053-2.090 2.090-25.078 35.527c-4.18 6.269-4.18 12.539-2.090 18.808 0 0 0 0 0 2.090 2.090 6.269 2.090 14.629-2.090 18.808-4.18 6.269-12.539 10.449-20.898 8.359-2.090 0-2.090 0-4.18 0-4.18-2.090-10.449-2.090-14.629-2.090 0 0 0 0-2.090 0v0h-2.090c-35.527-2.090-68.963 12.539-91.951 41.796 0 0 0 0 0 2.090 0 0 0 0 0 2.090 2.090 0 0 2.090-2.090 4.18-29.257 43.886-37.616 98.22-27.167 146.286zM735.608-5.486h-626.939c0 0-37.616 2.111-37.616 43.907h618.58c20.898 0 35.506 16.718 35.506 35.506v769.045c52.266 6.269 48.086-33.437 48.086-33.437v-779.494c0 0 0-35.527-37.616-35.527z" />
<glyph unicode="&#xe61d;" horiz-adv-x="830" d="M792.033 918.204h-66.873v6.269c0 18.808-16.718 35.527-35.527 35.527h-96.131v-108.669c0-8.359-4.18-10.449-10.449-4.18l-39.706 41.796c-6.29 4.18-14.649 4.18-20.898 0l-43.907-41.796c-6.269-4.18-10.449-2.090-10.449 6.269v106.58h-424.208c-29.257 2.090-43.886-22.988-43.886-43.886v-869.355c0 0 0-94.041 102.4-94.041h681.273c0 0 45.955 0 45.955 41.796v883.984c0.021 39.706-37.595 39.706-37.595 39.706zM365.714 493.976c4.18 4.18 10.449 6.269 16.718 6.269h2.090c6.269 0 14.629 2.090 18.808 8.359s4.18 14.629 0 20.898c0 2.090-2.090 2.090-2.090 2.090-4.18 4.18-6.269 8.359-8.359 14.629-2.090 2.090-2.090 6.269-4.18 8.359v0c-10.449 29.257-6.269 62.694 12.539 89.861v0l8.359 10.449 75.233 104.49c6.29 8.359 18.808 10.449 29.257 4.18 8.359-6.269 12.539-18.808 4.159-27.167v0l-35.506-48.065-2.090 2.090-33.437-48.065c0 0 0 0 0-2.090 0 0 0 0 0-2.090-6.269-8.359-2.111-20.898 6.269-27.167 8.359-6.269 20.898-4.18 27.188 4.18 0 0 0 0 0 2.090 0 0 0 0 0 2.090l45.955 62.694v2.090l25.078 33.437c6.269 8.359 18.787 10.449 29.236 4.18 8.359-6.269 10.449-18.808 4.2-27.167v0l-25.098-33.437v-2.090l-45.955-62.694c0 0 0 0 0-2.090 0 0 0 0 0-2.090-6.29-8.359-2.090-20.898 6.269-27.167 8.338-6.269 20.898-4.18 27.167 4.18 0 0 0 0 0 2.090 0 0 0 0 0 2.090l33.437 48.065 2.111 2.090 35.527 48.065c6.269 8.359 18.808 10.449 29.257 4.18s10.449-18.808 4.159-27.167v0l-75.233-104.49-8.359-10.449c-16.718-25.078-43.886-39.706-71.053-41.796 0 0 0 0-2.090 0-12.539-2.090-25.057 0-35.506 2.090-2.111 0-2.111 0-4.2 0-8.338 2.090-16.697-2.090-20.898-8.359-4.18-6.269-4.18-12.539-2.090-18.808 0 0 0 0 0-2.090 2.090-6.269 2.090-12.539-2.090-18.808l-177.633-248.686c-12.539-18.808-37.616-22.988-56.424-10.449-16.718 12.539-22.988 35.527-12.539 54.335l4.18 4.18 175.543 244.506 2.090 4.18zM499.461 205.584c-18.808-12.539-43.907-8.359-56.424 10.449v0l-73.143 104.49 50.155 71.032 91.951-127.478c10.449-18.787 6.248-43.865-12.539-58.493zM94.041 707.135v0c2.090 14.629 10.449 27.167 22.988 35.527s27.167 12.539 41.796 10.449v0c50.155-8.359 98.22-33.437 131.657-77.322 2.090-2.090 2.090-4.18 4.18-6.269 0 0 0 0 0-2.090 0 0 0 0 0-2.090 20.898-29.257 22.988-66.873 8.359-98.22v0-2.090c0 0 0 0 0-2.090-2.090-4.18-4.18-8.359-8.359-12.539l-2.090-2.090c-4.18-6.269-4.18-14.629 0-20.898s10.449-8.359 18.808-8.359h2.090c6.269 0 14.629-2.090 18.808-8.359v0l8.359-12.539-50.155-71.053-2.090 2.090-25.078 35.527c-4.18 6.269-4.18 12.539-2.090 18.808 0 0 0 0 0 2.090 2.090 6.269 2.090 14.629-2.090 18.808-4.18 6.269-12.539 10.449-20.898 8.359-2.090 0-2.090 0-4.18 0-4.18-2.090-10.449-2.090-14.629-2.090 0 0 0 0-2.090 0v0h-2.090c-35.527-2.090-68.963 12.539-91.951 41.796 0 0 0 0 0 2.090 0 0 0 0 0 2.090-2.090 2.090-2.090 4.18-4.18 6.269-27.167 41.796-35.527 94.041-25.078 144.196zM735.608 11.233h-626.939c0 0-37.616 2.111-37.616 43.907h618.58c20.898 0 35.506 16.718 35.506 35.527v769.024c52.266 4.18 48.086-33.437 48.086-33.437v-779.494c0-2.090 0-35.527-37.616-35.527z" />
<glyph unicode="&#xe61e;" horiz-adv-x="1249" d="M794.947 557.586v-470.681c0-4.491-0.898-8.982-1.796-12.566-0.898-3.593-3.584-6.288-6.288-8.084-2.695-1.796-5.389-3.593-7.186-5.389s-5.389-2.704-10.779-2.704c-5.389-0.898-8.075-0.898-10.77-0.898-1.796 0-5.398 0-11.686 0-6.279 0-8.982 0-10.77 0 0-32.337-11.686-60.182-34.142-83.537-23.354-23.363-50.302-34.133-83.537-34.133s-60.182 11.677-83.537 34.133c-23.354 23.354-34.133 50.302-34.133 83.537h-176.056c0-32.337-11.677-60.182-34.133-83.537-23.354-23.363-50.302-34.133-83.537-34.133-32.337 0-60.182 11.677-83.537 34.133-23.354 23.354-34.133 50.302-34.133 83.537h-28.744c-0.898 0-4.491 0-10.779 0s-9.881 0-11.677 0c-1.796 0-5.389 0.898-9.881 0.898-5.389 0.907-8.982 1.796-10.779 2.704-1.796 1.788-4.491 2.695-7.186 5.389-2.695 1.796-5.389 5.389-6.288 8.084-0.898 3.584-1.796 7.177-1.796 12.566 0 8.084 2.695 15.27 8.982 20.66 5.389 5.398 12.575 8.982 20.66 8.982v147.312c0 2.695 0 8.084 0 16.168s0 14.381 0 17.067c0 3.584 0.898 8.982 0.898 16.168 0.898 7.186 1.796 12.575 2.695 17.067 1.796 4.491 3.593 8.982 6.288 14.372 2.695 4.491 6.288 8.982 9.881 13.474l90.723 90.723c5.389 5.389 13.474 10.779 23.354 14.372s18.863 6.288 26.947 6.288h73.656v88.028c0 8.084 2.695 15.27 8.982 20.66 5.389 5.389 12.575 8.982 20.66 8.982h470.681c8.084 0 15.27-2.695 20.66-8.982 5.389-5.389 8.084-12.575 8.084-20.66zM88.926 293.502h176.056v116.772h-72.758c-3.593 0-7.186-1.796-9.881-4.491l-89.825-89.825c-2.695-2.695-4.491-6.288-4.491-9.881v-12.575h0.898zM247.916 16.842c11.677 11.677 17.067 25.151 17.067 41.319 0 16.177-5.389 29.651-17.067 41.328-11.677 11.668-25.151 17.058-41.319 17.058s-29.642-5.389-41.319-17.058c-11.677-11.677-17.067-25.151-17.067-41.328 0-16.168 5.389-29.642 17.067-41.319s25.151-17.067 41.319-17.067c16.168-0.898 29.642 5.389 41.319 17.067zM659.312 16.842c11.677 11.677 17.058 25.151 17.058 41.319 0 16.177-5.389 29.651-17.058 41.328-11.677 11.668-25.151 17.058-41.319 17.058s-29.642-5.389-41.319-17.058c-11.677-11.677-17.067-25.151-17.067-41.328 0-16.168 5.389-29.642 17.067-41.319s25.151-17.067 41.319-17.067c16.168-0.898 30.54 5.389 41.319 17.067zM942.26 483.032c41.319 41.319 61.97 90.723 61.97 148.211s-20.66 107.789-61.97 149.109c-41.319 41.319-90.723 61.979-149.109 61.979-57.479 0-107.789-20.66-148.211-61.979-41.319-41.319-61.979-90.723-61.979-149.109 0-57.488 20.66-107.789 61.979-148.211s90.723-61.979 148.211-61.979c58.386 0.898 107.789 20.66 149.109 61.979z" />
<glyph unicode="&#xe61f;" horiz-adv-x="1249" d="M1244.968 241.404c0-16.168-6.279-30.54-17.965-42.218-11.677-11.677-26.040-17.965-42.209-17.965-17.067 0-31.439 6.288-42.218 17.965l-160.786 160.786c-55.691-38.625-118.568-58.386-187.724-58.386-44.912 0-88.037 8.982-128.458 26.040-41.319 17.067-76.351 40.421-105.993 70.072-29.642 29.642-52.996 64.674-70.063 105.993s-26.049 83.537-26.049 128.449 8.982 88.028 26.049 128.449 40.421 76.351 70.063 105.993c29.642 29.642 64.674 52.996 105.993 70.063 40.412 17.067 83.528 26.049 128.44 26.049s88.028-8.982 128.449-26.049 76.351-40.421 105.993-70.063c29.642-29.642 52.996-64.674 70.063-105.993 17.067-40.421 26.049-83.537 26.049-128.449 0-69.165-19.761-131.144-58.386-187.733l160.786-160.786c11.677-11.677 17.965-26.049 17.965-42.218zM942.26 483.032c41.319 41.319 61.97 90.723 61.97 148.211s-20.66 107.789-61.97 149.109c-41.319 41.319-90.723 61.979-149.109 61.979-57.479 0-107.789-20.66-148.211-61.979-41.319-41.319-61.979-90.723-61.979-149.109 0-57.488 20.66-107.789 61.979-148.211s90.723-61.979 148.211-61.979c58.386 0.898 107.789 20.66 149.109 61.979z" />
<glyph unicode="&#xe620;" horiz-adv-x="1249" d="M942.26 483.032c41.319 41.319 61.97 90.723 61.97 148.211s-20.66 107.789-61.97 149.109c-41.319 41.319-90.723 61.979-149.109 61.979-57.479 0-107.789-20.66-148.211-61.979-41.319-41.319-61.979-90.723-61.979-149.109 0-57.488 20.66-107.789 61.979-148.211s90.723-61.979 148.211-61.979c58.386 0.898 107.789 20.66 149.109 61.979z" />
<glyph unicode="&#xe621;" glyph-name="print" horiz-adv-x="1104" d="M1106.286 408.686v-276.114c0-5.486-1.838-10.971-6.409-14.629-4.571-4.571-9.143-6.4-14.629-6.4h-149.029v-106.057c0-17.362-6.4-32.914-18.286-44.791-12.791-12.8-27.429-18.286-44.791-18.286h-639.086c-17.371 0-32.914 6.4-44.8 18.286-12.8 12.791-18.286 27.429-18.286 44.791v105.143h-149.943c-5.486 0-10.971 1.829-14.629 6.4-4.571 4.571-6.4 9.143-6.4 14.629v277.029c0 34.743 12.8 64.914 37.486 90.514s54.857 37.486 90.514 37.486h42.057v361.143c0 17.371 6.4 32.914 18.286 44.8 12.8 12.8 27.429 18.286 44.8 18.286h447.086c17.362 0 37.495-4.571 58.505-13.714 21.038-9.143 38.409-19.2 50.286-32l101.495-101.486c12.791-12.8 22.857-29.257 32-50.286s13.714-41.143 13.714-58.514v-170.057h42.971c34.743 0 64.914-12.8 89.6-37.486s37.486-53.943 37.486-88.686zM255.086 450.743h595.2v255.086h-106.057c-17.362 0-32.923 6.4-44.791 18.286-12.8 12.8-18.286 27.429-18.286 44.8v106.971h-426.066v-425.143zM255.086 25.6h595.2v170.057h-595.2v-170.057zM1008.448 378.514c8.229 8.219 12.8 18.286 12.8 30.171s-4.571 21.934-12.8 30.171c-8.219 8.229-18.286 12.8-30.162 12.8-11.895 0-21.943-4.571-30.181-12.8-8.229-8.229-12.8-18.286-12.8-30.171s4.571-21.943 12.8-30.171c8.229-8.229 18.286-12.8 30.181-12.8 11.877 0 21.943 4.571 30.162 12.8z" />
<glyph unicode="&#xe622;" glyph-name="remove" horiz-adv-x="1027" d="M1025.495 874.791l-83.714 85.209-429.034-429.034-427.539 429.034-85.209-85.209 429.034-427.539-429.034-429.034 85.209-83.714 427.539 427.539 429.034-427.539 83.714 83.714-427.539 429.034z" />
<glyph unicode="&#xe623;" glyph-name="brand-shops" horiz-adv-x="1232" d="M333.135 960h-140.856c-6.707 0-11.179-2.236-13.415-8.943l-178.865-435.983c0-2.236 0-6.707 0-8.943 2.236-51.424 38.009-96.14 87.174-109.577v-444.903c0.022-8.943 6.73-13.437 13.437-13.437h1026.236c8.943 0 13.415 6.73 13.415 13.437v444.903c49.188 13.437 87.197 58.153 87.197 109.577 0 2.236 0 2.236 0 4.472s0 4.472-2.236 6.707l-172.157 433.747c-2.236 6.707-6.707 8.943-13.415 8.943h-140.856zM697.572 930.934l31.301-406.917h-225.817l31.301 406.917h163.214zM478.463 494.952c-6.707-49.188-53.637-89.432-107.319-89.432-55.895 0-100.611 38.009-107.319 89.432h214.638zM970.341 494.952c-6.707-49.188-53.637-89.432-107.319-89.432-55.895 0-100.611 38.009-107.319 89.432h214.638zM1196.157 524.017h-221.345l-100.611 406.917h154.271l167.686-406.917zM201.223 930.934h156.507l-100.611-406.917h-221.345l165.45 406.917zM272.769 143.93c0 13.415 11.179 22.358 22.358 22.358 13.415 0 22.358-11.179 22.358-22.358 0-13.437-11.179-22.358-22.358-22.358-11.179-2.236-22.358 8.943-22.358 22.358zM1113.432-34.934h-650.62v368.908h-216.873v-368.908h-127.441v424.803c2.236 0 4.472 0 6.707 0 53.659 0 98.376 31.301 116.262 76.017 17.886-53.637 69.31-91.69 129.677-91.69s111.79 38.031 129.677 91.69c17.909-44.716 62.625-75.995 116.262-75.995 53.659 0 98.376 31.279 116.262 75.995 17.886-53.637 69.31-91.69 131.913-91.69 60.344 0 111.79 38.031 129.677 91.69 17.886-44.716 62.603-75.995 116.262-75.995 2.236 0 4.449 0 6.707 0v-424.803h-4.472zM827.249 331.738l-181.1-181.123c-2.236-2.236-6.707-4.449-11.179-4.449-4.449 0-6.707 2.236-11.179 4.449-6.707 6.73-6.707 15.673 0 20.122l163.214 163.236h-53.659l-125.205-125.205c-2.258-2.258-6.73-4.472-11.179-4.472-4.472 0-6.73 2.236-11.179 4.472-6.73 6.707-6.73 15.651 0 20.1l105.083 105.105h-143.092v-283.97h482.934v283.97l-203.459-2.236c2.236 2.236 2.236 2.236 0 0z" />
<glyph unicode="&#xe624;" glyph-name="delivery" horiz-adv-x="1543" d="M357.699 279.671c-91.178 0-168.329-77.151-168.329-168.259s77.151-168.329 168.329-168.329c91.178 0 168.329 70.137 168.329 168.329 0 91.108-70.137 168.259-168.329 168.259zM357.699 34.192c-42.082 0-77.151 35.068-77.151 77.151 7.014 42.082 35.068 77.151 77.151 77.151s77.151-35.068 77.151-77.151c0-42.082-35.068-77.151-77.151-77.151zM1514.959 455.014l-238.466 287.562c-49.096 63.053-63.123 49.096-98.192 56.11h-182.356c-42.082 0-84.164-35.068-84.164-84.164v-448.877h-70.137v603.178c0 49.096-35.068 91.178-91.178 91.178h-666.301c-42.082 0-84.164-42.082-84.164-91.178v-673.315c0-42.152 35.068-84.164 84.164-84.164h49.096c0 126.247 98.192 224.438 224.438 224.438s224.438-98.192 224.438-224.438h364.712c0 126.247 98.192 224.438 224.438 224.438s224.438-98.192 224.438-224.438h63.123c42.152 0 84.164 35.068 84.164 84.164v168.329c0 35.068 0 56.11-28.055 91.178zM1311.562 497.096h-280.548c-21.041 0-42.082 21.041-42.082 42.082v140.274c0 21.041 21.041 42.082 42.082 42.082h126.247c21.041 0 49.096-28.055 63.123-42.152l112.219-140.204c14.027-21.041 0-42.082-21.041-42.082zM1178.301 279.671c-98.122 0-175.342-77.151-175.342-168.259s77.221-168.329 175.342-168.329c91.178 0 168.329 70.137 168.329 168.329 0 91.108-70.137 168.259-168.329 168.259zM1178.301 34.192c-42.082 0-77.151 35.068-77.151 77.221 0 42.082 35.068 77.151 77.151 77.151 42.152 0 77.221-35.068 77.221-77.151-0.070-42.152-35.139-77.221-77.221-77.221z" />
<glyph unicode="&#xe625;" glyph-name="all-fresh" horiz-adv-x="1259" d="M1043.428 363.679c-13.764 19.967-41.014 25.364-61.251 11.603-19.967-13.761-25.364-41.284-11.603-61.251l172.69-253.099c13.761-19.965 41.014-25.361 61.251-11.603 19.965 13.761 25.361 41.284 11.603 61.251l-172.69 253.099zM277.924 375.281c-20.237 13.764-47.49 8.367-61.251-11.603l-172.69-253.099c-13.761-19.967-8.365-47.493 11.603-61.251 20.237-13.761 47.49-8.365 61.251 11.603l172.69 253.099c13.761 20.237 8.365 47.49-11.603 61.251zM1229.34 620.016c-399.616 0-799.503 0-1199.116 0-16.19 0-29.411-13.222-29.411-29.411s13.222-29.411 29.411-29.411h15.647l45.601-240.687c0.809-4.857 4.317-8.365 9.174-9.444s9.444 0.809 12.142 4.857c20.237 29.681 36.427 53.426 55.045 80.679 15.92 23.475 39.935 38.316 65.838 43.173 25.634 5.124 53.426 0 76.901-15.92 23.475-15.917 38.316-39.935 43.173-65.836 3.778-19.967 1.619-40.747-6.746-60.175-8.904-18.076-19.967-33.729-31.3-49.646-2.428-3.508-2.968-8.095-0.809-12.142s5.936-6.476 10.523-6.476h28.332c2.968-28.872 5.666-58.013 8.635-86.885h-106.313c-8.095 0-14.841-3.508-19.428-10.253l-20.507-30.221c-2.698-3.775-2.968-8.095-0.809-12.142 2.159-3.775 5.936-6.206 10.523-6.206h142.47c3.238-33.729 6.476-57.741 27.523-86.885h-139.232c-25.634 0-47.22 17.811-52.077 43.173l-1.349 6.746c-0.809 4.86-4.317 8.635-9.174 9.444-4.857 0.812-9.444-1.077-12.142-5.124-6.746-10.253-13.761-20.51-20.777-29.142-6.206-7.558-7.016-17.539-2.428-26.173 18.888-35.078 55.855-58.013 97.948-58.013h747.156c41.823 0 78.79 22.935 97.948 58.013 4.857 8.635 3.778 18.615-2.426 26.173-7.018 8.632-14.031 19.158-20.777 29.142-2.698 4.047-7.555 6.206-12.142 5.124-4.587-1.077-8.367-4.584-9.174-9.444l-1.349-6.746c-4.587-25.361-26.173-43.173-52.077-43.173h-139.501c20.777 29.144 24.285 52.889 27.523 86.885h142.47c4.587 0 8.367 2.159 10.523 6.206 1.889 4.047 1.619 8.367-0.809 12.142l-20.51 30.221c-4.587 6.476-11.333 10.253-19.428 10.253h-106.582l8.635 86.885h28.602c4.584 0 8.365 2.428 10.521 6.476s1.889 8.365-0.809 12.142c-11.603 16.46-23.205 33.189-31.57 50.188-8.095 19.161-10.253 39.935-6.473 59.635 4.857 25.904 19.697 49.918 43.173 65.836 23.472 15.92 50.995 20.777 76.901 15.92 25.904-4.857 49.918-19.697 65.836-43.173 18.618-27.255 34.808-50.998 55.045-80.679 2.698-4.047 7.285-5.936 12.142-4.857s8.365 4.587 9.171 9.444l45.061 240.687h15.65c16.19 0 29.411 13.222 29.411 29.411s-13.216 29.409-29.406 29.409zM346.19 444.897c-29.142-1.886-54.505 19.967-56.664 49.109s19.967 54.505 49.109 56.664c29.411 2.159 54.505-19.967 56.664-49.109 2.159-29.411-19.967-54.505-49.109-56.664zM600.639-3.019h-90.123c-53.696 0-78.52 38.316-83.377 86.885h173.5v-86.885zM600.909 142.689h-179.436c-2.698 28.872-5.936 58.013-8.635 86.885h188.071v-86.885zM600.909 288.666h-193.737l-8.635 86.885h202.372v-86.885zM749.314-3.019h-89.853v86.885h173.23c-4.587-48.299-30.76-86.885-83.377-86.885zM838.628 142.689h-178.896v86.885h187.531l-8.635-86.885zM852.929 288.666h-193.197v86.885h201.832l-8.635-86.885zM970.574 494.006c-2.159-29.142-27.255-50.995-56.664-49.109-29.142 2.159-51.267 27.255-49.109 56.664 2.159 29.142 27.253 51.267 56.664 49.109 29.142-2.159 51.267-27.523 49.109-56.664zM457.36 928.16c-47.49 21.047-104.154 30.491-155.421 26.173-27.523-2.428-52.886-14.301-72.314-32.919-19.697-1.349-39.665-4.317-59.632-9.174-29.411-7.285-57.743-18.348-82.298-32.11-37.776-21.316-63.68-59.902-68.806-103.075s10.793-86.615 42.363-116.296l32.379-30.221c3.508-3.238 6.206-7.555 7.285-12.412l22.666-92.281c6.206-25.634 32.379-41.284 58.013-35.078l173.77 42.903c1.619 0.27 2.968 0.809 4.587 1.349l56.934 14.031c11.063 2.698 19.697 11.872 21.856 23.205l21.586 120.074 36.697 38.586c27.523 28.872 39.395 69.616 31.57 109.011-8.095 39.125-34.538 72.044-71.235 88.234zM163.786 535.829l-22.666 92.281c-2.968 12.682-9.714 23.745-19.158 32.649l-32.379 30.221c-22.126 20.777-33.189 50.998-29.681 81.218s21.586 56.934 48.030 71.774c21.316 11.872 46.141 21.586 72.044 28.062 7.016 1.619 13.761 3.238 20.777 4.317 15.65 2.698 31.3 4.317 46.411 4.317 32.379 0.27 63.14-15.11 82.028-41.554s23.745-60.442 13.222-90.932l-12.682-36.157c-4.317-12.142-4.857-25.364-1.889-37.776l22.666-92.281c0.809-3.508-1.349-7.016-4.857-8.095l-173.77-42.903c-3.508-0.809-7.285 1.349-8.095 4.857zM283.050 652.125c0-6.11-4.953-11.063-11.063-11.063s-11.063 4.953-11.063 11.063c0 6.11 4.953 11.063 11.063 11.063s11.063-4.953 11.063-11.063zM195.626 621.635c-13.222-3.238-21.047-16.46-17.809-29.681s16.46-21.047 29.681-17.809c8.365 2.159 14.571 8.365 17.269 15.92 1.349 4.317 1.619 8.904 0.54 13.761-0.27 0.54-0.27 1.079-0.54 1.619-4.047 12.142-16.729 19.428-29.142 16.19zM197.515 780.564c0-22.651-18.363-41.014-41.014-41.014s-41.014 18.363-41.014 41.014c0 22.651 18.363 41.014 41.014 41.014s41.014-18.363 41.014-41.014zM276.035 824.276c0-8.643-7.007-15.65-15.65-15.65s-15.65 7.007-15.65 15.65c0 8.643 7.007 15.65 15.65 15.65s15.65-7.007 15.65-15.65zM199.943 695.568c0-9.388-7.611-16.999-16.999-16.999s-16.999 7.611-16.999 16.999c0 9.388 7.611 16.999 16.999 16.999s16.999-7.611 16.999-16.999zM284.669 724.979c0-12.071-9.785-21.856-21.856-21.856s-21.856 9.785-21.856 21.856c0 12.071 9.785 21.856 21.856 21.856s21.856-9.785 21.856-21.856zM810.296 917.907c1.079 11.603-14.301 32.379-19.428 38.586-0.809 1.079-2.159 1.349-2.968 0.54-35.617-28.062-51.807-61.791-58.823-87.694-15.113 2.698-29.681-1.889-37.776-11.603 1.889-2.968 3.775-5.936 5.397-8.904 9.444 1.079 18.888 0.27 27.792-2.428 1.349-0.54 2.968-0.809 4.317-1.619 2.428-1.079 4.86-2.159 7.285-3.508 7.018-4.047 13.491-9.174 18.888-15.65 4.32 1.619 8.635 2.698 12.952 3.508 0 12.412-7.822 24.824-20.507 32.919 11.333 16.729 29.951 36.157 60.442 52.347 1.349 1.079 2.159 2.159 2.428 3.508zM806.788 809.975c-1.889 0.809-4.047 1.619-6.206 2.159-13.761 4.317-27.253 3.778-39.395-0.54 2.161-4.047 3.778-8.365 4.86-12.682 2.426-8.904 2.968-18.079 2.426-26.713-0.54-8.635-2.426-16.999-4.587-25.094-2.426-8.095-5.666-15.65-9.171-22.935-3.508-7.285-7.825-14.301-12.415-21.047 3.778 15.65 7.558 31.030 8.907 46.411 1.349 15.11 0.537 30.221-4.587 42.633-1.079 2.698-2.428 5.397-4.047 7.825-1.889 2.968-4.047 5.666-6.476 8.095-4.317 4.317-9.714 7.555-15.38 9.444s-12.142 2.698-18.348 2.159c-3.508-0.27-6.746-0.809-10.253-1.619-2.968-0.809-5.666-1.619-8.635-2.968-12.142-5.127-22.396-14.031-30.758-25.634-8.367-11.333-14.571-24.824-19.7-39.125-5.124-14.301-8.635-29.411-11.603-44.792s-5.127-31.030-7.285-47.22c-3.238 15.92-4.857 31.84-5.127 48.299-0.27 16.19 1.079 32.649 4.587 49.109 1.889 8.095 4.047 16.19 7.285 24.285 2.968 8.095 7.016 15.92 11.603 23.205 4.857 7.555 10.521 14.301 17.266 20.507s14.841 11.333 23.475 14.841c2.698 1.079 5.666 2.159 8.365 2.968-5.934 11.333-15.378 20.777-28.602 26.983-1.889 0.809-4.047 1.889-5.936 2.428-33.459 13.222-64.219 2.159-85.266-31.030-41.014-64.489-42.903-151.374-27.792-219.101 4.317-19.428 9.984-33.998 28.872-41.554 2.698-1.079 5.666-1.889 8.635-2.698 8.095-1.889 16.19-0.809 23.745 2.428 1.889-10.253 8.904-19.158 18.888-23.205 10.523-4.047 22.396-1.889 31.030 4.857 3.51-8.095 8.907-15.11 16.462-19.428 2.968-1.619 5.666-2.968 8.365-4.047 19.161-7.555 33.189-0.54 49.379 10.793 56.937 39.395 114.677 104.694 128.441 179.706 7.55 40.204-7.561 69.076-41.019 82.298zM1184.278 720.392c5.666 8.095 7.016 18.888 2.968 28.602-1.079 2.698-2.428 5.127-4.317 7.016 10.521 14.841 13.491 34.538 5.934 52.617-11.6 27.792-43.44 40.744-71.232 29.142-6.746-2.698-12.682-6.746-17.539-11.603-13.764 9.174-31.84 11.333-48.299 4.587-26.443-11.063-38.855-41.284-27.792-67.727 2.968-7.016 7.285-13.222 12.682-18.079l-29.411-76.901-66.378-60.711c-8.904-8.095-9.717-22.126-1.349-31.030 2.426-2.698 5.124-4.587 8.095-5.666 7.555-2.968 16.46-1.619 22.935 4.317v0 0l36.967 33.729 32.107 29.411 51.54 22.666c0.537-4.047 1.619-7.825 3.235-11.872 11.872-28.062 46.143-40.474 76.901-27.792 30.76 12.952 46.143 45.871 34.268 74.203-3.775 11.063-11.6 19.428-21.314 25.094zM1065.554 731.455c-1.889-6.476-1.622-13.491 1.077-20.237 0.54-1.079 1.079-2.159 1.622-3.238l-33.189-30.221 21.316 55.585c2.698-0.809 5.936-1.349 9.174-1.889zM1044.507 661.839l46.95 42.363c6.746-2.159 13.761-2.698 20.777-2.159-2.159-4.047-3.778-8.365-5.397-12.682l-62.33-27.523zM1048.285 845.862c10.793 30.221-2.698 62.6-30.221 72.584-9.714 3.508-19.697 3.778-29.142 1.349-2.159 9.714-8.904 18.079-19.158 21.586-11.872 4.317-24.824 0.54-32.652-8.635-2.159 1.619-4.857 2.968-7.555 4.047-15.38 5.397-32.11-2.428-37.776-17.809-2.159-5.666-2.159-11.603-1.079-16.999-11.87-2.968-22.123-11.603-26.443-24.015-7.016-19.697 3.238-41.554 22.935-48.839 3.778-1.349 7.555-2.159 11.333-2.159l23.205-46.141v-66.108c0-6.746 4.32-12.682 10.256-15.11 1.886-0.809 3.775-1.079 5.934-1.079 8.907 0 16.19 7.285 16.19 16.19v69.076l11.066 32.649c4.047-2.968 8.365-5.666 13.491-7.285 27.523-9.714 58.823 6.476 69.616 36.697zM924.703 836.149c1.077-0.54 1.889-1.079 2.968-1.349 0.809-0.27 1.622-0.54 2.428-0.809l-0.27-33.189-14.841 29.411c3.508 1.619 6.746 3.508 9.714 5.936zM945.21 788.119l0.273 66.918c2.426 1.349 4.857 2.968 7.016 4.857 2.968-7.016 6.206-13.761 10.253-20.237l-17.542-51.537z" />
<glyph unicode="&#xe626;" glyph-name="perfectly-packed" horiz-adv-x="671" d="M230.694 652.094c-11.77-4.708-21.186-10.829-27.777-17.891-2.825 6.12-5.65 12.241-8.474 18.361-5.65 11.77-11.77 23.069-17.891 33.427-48.022 81.449-101.223 121.938-101.223 121.938l-35.781-10.358c0 0-34.84-96.515-9.416-230.223l3.766 2.354c6.591 3.766 13.653 6.12 21.186 6.12 6.591 0 13.653-1.883 19.303-4.708l42.843-23.069 33.898 21.657c3.766 2.354 7.533 3.766 11.77 5.179 3.296 0.942 6.591 1.412 9.887 1.412s6.591-0.471 9.416-1.412c4.237-0.942 8.474-2.825 12.241-5.179l8.474-5.179 24.482-15.537 4.708 2.825c-0.942 3.296-1.883 6.591-2.825 9.887v0.471c-1.883 6.591-3.766 13.183-5.65 19.303 24.482 16.007 54.613 23.069 72.975 23.069 5.179 0 8.945-0.471 12.241-1.412 19.303-7.062 7.533-16.949-15.066-29.19 3.296-0.942 6.591-2.354 9.416-4.237l32.486-20.715 32.486 20.715c6.587 4.237 13.649 6.12 21.657 6.12 3.766 0 7.062-0.471 10.829-1.412 42.372 117.23 99.34 387.001 5.65 387.001-11.295 0-24.953-4.237-40.96-12.712-78.624-42.843-78.624-135.592-78.624-135.592 28.248 30.602 70.621 46.139 90.865 46.139 4.233 0 7.533-0.471 9.416-1.883 18.357-12.241-31.544-42.372-119.114-83.803-80.508-37.664-47.080-106.873-47.080-106.873 27.777 36.723 87.099 71.562 117.23 71.562 5.65 0 9.892-0.942 13.183-3.766 29.661-23.54-51.789-54.613-120.526-82.391zM76.27 871.489c-0.471 2.354-2.825 3.296-5.179 2.825l-68.267-20.245c-2.354-0.471-3.296-2.825-2.825-5.179l11.299-37.664c0.471-2.354 2.825-3.296 5.179-2.825l67.796 19.774c2.354 0.471 3.296 2.825 2.825 5.179l-10.829 38.135zM669.484 818.288c-5.184 0.471-14.6 0.942-21.186-2.825-2.354-1.412-3.766-4.237-5.184-6.591-1.879-4.708-4.233-9.416-6.587-14.124l-18.832 9.887c-0.942 0.471-1.883 1.883-1.883 3.296 0 7.533-1.879 32.015-24.011 35.781-26.37 4.708-44.726-21.657-53.201-32.486-7.538-9.887-23.069-17.891-30.602-21.186-0.942-0.471-0.942-1.883 0-2.354 23.065-3.766 24.011-24.011 52.725-23.54 26.37 0.471 42.848 25.894 47.080 32.956 0.476 0.942 1.883 1.883 2.83 1.883 9.887-0.471 17.42-6.591 22.128-11.77-6.125-11.77-12.246-22.128-17.895-30.602-19.303 5.65-43.309-1.412-49.905-13.653-37.664-64.971-62.617-59.792-100.752-84.745-5.645-3.766-11.765-8.474-18.357-13.653-2.354-1.883-4.708-3.766-6.591-6.12-19.303-17.891-33.427-40.96-37.189-65.442 2.82-0.942 5.645-2.354 7.999-3.766l6.125-3.766 16.478-10.358 9.887-6.12 32.486 20.715c6.587 4.237 13.649 6.12 21.657 6.12 7.533 0 15.066-2.354 21.657-6.12l32.486-20.715 32.486 20.715c6.587 4.237 14.124 6.591 22.123 6.591 3.296 0 6.591-0.471 9.892-1.412 2.354 39.077-8.945 60.734 29.661 119.114 9.416 13.183 1.883 45.197-18.832 57.438 14.124 16.007 29.661 36.723 43.785 63.088 2.349 1.412 1.408 3.766-0.476 3.766zM362.52 213.304c0-9.361-7.588-16.949-16.949-16.949s-16.949 7.588-16.949 16.949c0 9.361 7.588 16.949 16.949 16.949s16.949-7.588 16.949-16.949zM378.998 282.512c6.591 0 11.77 5.184 11.77 11.77 0 6.591-5.179 11.77-11.77 11.77h-162.428c-6.591 0-11.77-5.179-11.77-11.77 0-6.587 5.179-11.77 11.77-11.77h162.428zM376.644 256.147c0 6.591-5.179 11.77-11.77 11.77h-71.562c-6.591 0-11.77-5.179-11.77-11.77s5.179-11.77 11.77-11.77h71.562c6.591 0 11.77 5.179 11.77 11.77zM319.676 213.304c0-9.361-7.588-16.949-16.949-16.949s-16.949 7.588-16.949 16.949c0 9.361 7.588 16.949 16.949 16.949s16.949-7.588 16.949-16.949zM652.064 523.093l-40.489 17.891-1.417 0.471c-0.937 0.471-1.879 0.471-3.291 0.471-1.417 0-2.83-0.471-4.237-1.412l-47.080-30.131c-0.942-0.471-2.354-0.942-3.766-0.942s-2.354 0.471-3.766 0.942l-47.080 30.131c-0.942 0.471-2.354 0.942-3.771 0.942-1.412 0-2.354-0.471-3.766-0.942l-47.080-30.131c-0.942-0.471-2.354-0.942-3.766-0.942s-2.354 0.471-3.766 0.942l-19.769 12.241-13.653 8.945-2.354 1.412-9.887 8.004c-0.942 0.471-2.354 0.942-3.766 0.942-0.942 0-1.883-0.471-2.83-0.471-0.471 0-0.471 0-0.937-0.471l-47.080-30.131c-0.942-0.471-2.354-0.942-3.766-0.942s-2.354 0.471-3.766 0.942l-47.080 30.131c-0.942 0.471-2.354 0.942-3.766 0.942s-2.354-0.471-3.766-0.942l-38.135-24.482-8.945-5.65c-0.942-0.471-2.354-0.942-3.766-0.942s-2.354 0.471-3.766 0.942l-18.832 12.241-28.248 17.891c-0.942 0.471-2.354 0.942-3.766 0.942s-2.354-0.471-3.766-0.942l-0.471-0.471-16.478-10.358-29.661-18.832c-0.942-0.942-2.354-0.942-3.766-0.942s-2.354 0.471-3.296 0.942l-56.497 30.602c-0.942 0.471-2.354 0.942-3.296 0.942-1.412 0-2.825-0.471-3.766-0.942l-12.241-8.945-31.544-19.774c-2.354-1.412-3.766-3.766-3.296-6.591l0.471-26.836c0 0 0-0.471-0.471-0.471 0 0-0.471 0-0.471-0.471v-387.943c0-85.686 69.208-154.895 154.895-154.895h343.687c85.682 0 154.89 69.208 154.89 154.895v426.549c0.476 2.354-1.408 4.708-3.762 5.65zM328.622 121.968c-75.329 0-136.533 61.205-136.533 136.533s61.205 136.533 136.533 136.533 136.533-61.205 136.533-136.533-61.205-136.533-136.533-136.533zM329.092 378.086c-42.843 0-80.508-23.069-101.694-56.972h29.661c17.42 20.245 43.314 32.956 72.033 32.956 52.73 0 95.573-42.843 95.573-95.573s-42.848-95.573-95.573-95.573-95.573 42.843-95.573 95.573c0 3.296 0 6.591 0.471 9.887h-24.011c-0.471-3.291-0.471-6.587-0.471-9.887 0-65.913 53.672-119.584 119.584-119.584s119.584 53.672 119.584 119.584-53.672 119.589-119.584 119.589z" />
<glyph unicode="&#xe627;" glyph-name="right-on-time" horiz-adv-x="1470" d="M598.292 98.363c-44.744 0-80.539-36.441-79.9-80.546 0-44.098 35.795-79.9 80.539-79.9 44.105 0 80.539 35.802 80.539 79.9-0.639 44.744-36.434 80.546-81.179 80.546zM598.931-26.281c-24.29 0-44.105 19.815-44.105 43.459 0 24.296 19.176 44.105 43.466 44.105 23.65 0 44.105-19.815 44.105-43.466s-19.815-44.098-43.466-44.098zM1171.016 97.718c-48.586 1.278-84.375-33.878-84.375-80.546 0-43.459 35.795-79.255 79.9-79.255 44.744 0 79.9 35.156 81.179 78.622 0 40.276-30.682 79.9-76.704 81.179zM1165.903-26.281c-23.65 0.639-43.472 20.448-43.472 44.744 0.646 24.283 21.1 44.098 44.744 42.82 24.296-0.639 43.472-20.448 42.826-44.744 0.006-23.644-19.809-42.82-44.098-42.82zM89.488 456.31c1.278-0.639 3.835-3.196 5.114-3.196 42.826 0 85.014-4.474 127.84-4.474 20.454 0 41.548 0 62.002 0 2.557 12.784-1.278 12.784-6.392 12.784-61.363 0-122.727 3.835-184.729 3.835-1.278 0-3.196 0.639-4.474 0s-2.557-3.196-3.196-5.114c1.278-1.278 2.557-3.196 3.835-3.835zM236.504 378.327c-83.096 0-159.8 0-236.504 0 0-6.392 0-6.392 0-12.784 76.704 0 153.408 0 236.504 0 0 6.392 0 6.392 0 12.784zM258.237 327.191c-23.011 0-47.94 0-70.951 0-1.278 0-8.31-0.639-8.31-0.639 0-2.557 0-4.468 0-7.664 6.392 0 10.227 0 12.784 0 35.795 0 75.426 0 111.221 0 1.918 0 3.835 2.55 5.753 4.468-1.918 1.278-4.474 4.474-6.392 4.474-14.702 0-30.042-0.639-44.105-0.639zM871.87 319.521c0-8.119-6.582-14.702-14.702-14.702s-14.702 6.582-14.702 14.702c0 8.119 6.582 14.702 14.702 14.702s14.702-6.582 14.702-14.702zM884.654 357.24c0 5.746-4.474 10.227-10.234 10.227h-62.635c-5.753 0-10.227-4.474-10.227-10.227s4.468-10.234 10.227-10.234h62.642c5.753 0 10.227 4.474 10.227 10.234zM1401.768 106.667c1.278 26.853 1.278 53.693-5.114 79.9-15.98 62.009-44.105 117.613-81.818 168.749-1.918 2.557-3.842 5.753-6.392 9.588 3.196 0 4.474-0.639 6.392 0 2.55 1.278 5.114 2.557 8.31 3.835-1.278 3.196-3.196 6.392-5.114 8.949-1.278 1.278-3.842 1.924-5.753 2.557-21.094 5.114-41.548 14.056-62.002 20.448-58.167 19.176-119.524 33.884-180.894 41.548-9.588 1.285-20.454 1.285-33.238 1.924 0-104.196 0-206.468 0-309.373l-6.392-0.639c0 5.753 0 10.227 0 15.341 0 68.388 2.557 137.428 2.557 205.816 0 58.806 2.557 118.252 3.196 177.059 0 5.114-1.918 7.67-7.031 7.67-8.949-0.639-19.176-0.639-28.125-0.639-122.727 0-246.092 0-368.819 0-92.045 0-186.007 0-278.692 0-3.196 0-6.392 0-12.784-0.639 0-137.428 0-282.527 0-416.759 25.568 0 44.744 0 63.92 0 0-6.392 0-3.196 0-7.031-6.392 0.639-19.176 1.918-25.568 2.557 0-23.657 0-44.744 0-65.844 12.784-5.753 22.372 0 32.599 5.12 0.639-5.12 2.557-11.512 2.557-17.904 3.196 0 5.753 0 8.31 0 21.733 0 43.466 4.474 65.199 3.196 14.702-0.639 23.65 8.316 31.321 19.815 2.557 3.842 4.474 7.677 7.031 10.873 5.114 8.303 10.227 16.619 15.341 24.922 5.114 7.67 10.866 11.506 21.094 11.506 26.207-0.639 52.414-0.639 79.261 0 9.588 0 16.619-3.196 21.733-10.227 3.835-5.753 7.67-10.866 11.506-16.619 6.392-9.588 12.145-19.822 17.898-29.41 3.196-4.474 7.031-7.038 12.784-7.038 23.011 0 45.39 0 68.395 0 88.21 0 177.059 0 265.268 0 1.918 0 4.474 0 6.392-0.639 0.639-3.196 0.639-5.753 1.278-7.664 15.334-3.196 27.486-0.646 35.156 14.056 1.918 3.835 4.474 7.031 6.392 10.227 9.588 14.069 18.53 28.125 28.118 42.194 2.557 3.842 8.316 7.038 12.784 7.038 27.492 0.639 54.978 0 82.457 0.639 7.67 0 12.145-3.196 15.98-9.588 6.392-10.227 12.145-20.454 17.898-30.042s11.506-19.176 17.898-27.486c2.557-3.196 7.67-7.031 11.512-7.031 37.706-0.646 75.426-0.646 113.132 0 1.924 0 5.12 2.55 5.12 3.835 1.272 8.949 6.392 9.588 13.423 8.949 1.278 0-4.474 0.639 1.918 0.639 0 12.784 0 24.929 0 37.074-6.392 0.646-4.474 0.646-7.67 1.278-1.918 6.405 1.278 11.518 1.278 17.271zM842.467 239.62c-65.838 0-119.531 53.693-119.531 119.524 0 65.844 53.693 119.537 119.531 119.537s119.531-53.693 119.531-119.531c0-65.831-53.693-119.531-119.531-119.531zM1276.484 215.97c-2.557 0-5.753 1.918-7.038 3.842-16.619 23.011-12.784 19.815-40.902 20.448-23.018 0-45.39 0-68.395 0-8.949 0-10.227 1.924-10.227 10.227 0 28.125 0 55.617 0 83.742 0 7.038 3.196 9.588 9.588 9.588 32.599 0 64.559-1.278 97.152 0 19.822 0.646 31.96-8.942 43.472-22.372 21.094-24.29 35.795-52.414 49.858-80.546 3.835-7.664 7.67-15.98 12.138-25.568-30.036 0.639-57.522 0.639-85.647 0.639zM1383.87 108.584c-8.31 8.949-8.31 35.795 0.639 45.383 8.949-10.86 8.949-39.624-0.639-45.383zM886.572 380.245c5.746 0 10.227 4.468 10.227 10.227s-4.474 10.227-10.227 10.227h-141.903c-5.753 0-10.227-4.468-10.227-10.227s4.474-10.227 10.227-10.227h141.903zM843.106 463.98c-37.713 0-70.312-19.815-88.849-49.858h25.568c15.341 17.898 37.713 28.764 63.281 28.764 46.022 0 83.735-37.706 83.735-83.735 0-46.016-37.713-83.735-83.735-83.735s-83.742 37.713-83.742 83.735c0 3.196 0 5.753 0.646 8.949h-21.094c0-2.557-0.639-5.753-0.639-8.949 0-57.528 46.662-104.183 104.19-104.183s104.19 46.655 104.19 104.183c0.639 58.167-46.022 104.829-103.551 104.829zM834.797 319.521c0-8.119-6.582-14.702-14.702-14.702s-14.702 6.582-14.702 14.702c0 8.119 6.582 14.702 14.702 14.702s14.702-6.582 14.702-14.702zM1270.732 871.79c-90.767-5.753-172.584-83.096-172.584-186.007-0.639-103.551 84.375-186.007 186.647-186.647 102.911 0 186.007 83.096 186.647 186.007 0.639 100.994-84.375 194.317-200.709 186.647zM1284.794 529.179c-85.014 0-155.965 69.673-155.965 155.965 0 83.735 66.477 156.604 156.604 156.604 89.488 0 156.604-72.23 156.604-156.604-0.639-86.292-70.951-155.326-157.243-155.965zM1251.556 901.194c3.842-1.278 4.474-3.196 3.842-6.392 0-1.918 0-4.474 0-7.031 0-3.835 1.918-4.474 5.746-4.474 11.506 0.639 23.018 1.278 34.517 1.278 5.746 0 11.506-0.639 17.898-1.278 0 3.196 0.639 6.392 0.639 9.588 0 4.474 0.646 7.031 5.753 8.31 5.753 1.918 8.31 7.031 8.949 13.423 0 9.588 0.639 18.537 0 28.125-0.646 9.588-6.392 14.702-15.341 15.341-18.537 0-37.074 0-55.61 0-8.942 0-15.334-5.753-15.334-15.341s0-18.537 0-28.125c-1.285-6.392 1.911-11.506 8.942-13.423zM1425.418 872.429c3.196 6.392 0.639 13.423-5.753 17.258-8.31 5.114-16.619 10.227-24.922 14.702-8.31 4.474-15.341 1.918-20.454-5.753-5.114-8.31-10.227-17.258-15.341-25.568 17.258-10.227 33.238-19.176 50.497-29.403 5.107 8.949 10.86 18.537 15.974 28.764zM1302.692 708.155c-31.314 24.29-62.642 47.94-93.963 72.23-1.918 1.278-3.835 2.557-5.114 3.835-0.639 0-0.639-0.639-1.278-0.639 1.278-2.557 1.924-4.474 3.196-7.031 17.904-34.517 35.802-69.034 53.693-103.551 6.392-12.145 15.98-16.619 30.042-15.341 10.227 1.278 20.454 9.588 23.65 20.454 3.835 10.866 0 22.372-10.227 30.042z" />
<glyph unicode="&#xe628;" glyph-name="satisfaction-guaranteed" horiz-adv-x="892" d="M445.691 960c-174.621 0-316.573-141.952-316.573-316.184 0-174.621 141.952-316.184 316.184-316.184 174.621 0 316.184 141.952 316.184 316.184 0.389 174.232-141.563 316.184-315.795 316.184zM445.691 363.801c-154.786 0-280.015 125.229-280.015 280.015s125.229 280.015 280.015 280.015c154.786 0 280.015-125.229 280.015-280.015s-125.618-280.015-280.015-280.015zM693.042 496.419c-1.556 3.111-2.726 5.834-4.282 8.945-48.221-84.393-138.841-141.563-243.069-141.563s-195.233 57.17-243.069 141.563c-1.556-3.111-2.722-5.834-4.278-8.945l-197.955-410.3 186.677-8.941 122.118-141.563 136.118 282.734 136.118-282.734 122.507 141.559 186.677 8.941-197.562 410.304zM696.538 98.564l-107.339-121.729-143.119 285.071-138.063-281.182-106.561 120.951-159.064 9.334 148.953 315.795 14.001-6.611-139.23-295.183 142.341-8.167 95.672-108.506 141.952 288.575 146.619-292.464 96.839 109.677 145.841 2.718-143.508 289.349 14.001 7 154.012-311.521-163.346-3.107zM445.302 901.664c-141.952 0-256.681-114.728-256.681-256.681s114.728-256.681 256.681-256.681c141.952 0 256.681 114.728 256.681 256.681s-115.117 256.681-256.681 256.681zM211.956 712.653c0 12.445 10.112 22.557 22.557 22.557h305.683c12.445 0 22.561-10.112 22.561-22.557s-10.116-22.557-22.561-22.557h-305.683c-12.445 0.389-22.557 10.501-22.557 22.557zM378.409 618.537c-12.445 0-22.557 10.112-22.557 22.557s10.112 22.557 22.557 22.557h134.952c12.449 0 22.561-10.112 22.561-22.557s-10.112-22.557-22.561-22.557h-134.952zM508.694 559.812c0-17.501-14.001-31.502-31.502-31.502s-31.506 14.001-31.506 31.502 14.005 31.502 31.506 31.502 31.502-14.001 31.502-31.502zM427.801 559.812c0-17.501-14.001-31.502-31.502-31.502s-31.502 14.001-31.502 31.502 14.001 31.502 31.502 31.502 31.502-14.001 31.502-31.502zM445.691 420.578c-124.062 0-224.79 100.732-224.79 224.794 0 6.223 0.389 12.445 0.778 18.668h45.114c-0.778-6.223-0.778-12.445-0.778-18.668 0-99.172 80.504-179.676 179.676-179.676s179.676 80.504 179.676 179.676-80.504 179.676-179.676 179.676c-54.447 0-103.061-24.112-135.73-62.226h-55.614c39.669 64.17 110.45 107.339 191.344 107.339 124.058 0 224.79-100.728 224.79-224.79s-100.728-224.794-224.79-224.794z" />
</font>
</defs>
</svg>
